<?xml version="1.0" encoding="UTF-8"?>
<svg xmlns="http://www.w3.org/2000/svg" xmlns:xlink="http://www.w3.org/1999/xlink" width="800px" height="800px" viewBox="0 0 800 800" version="1.1">
<g id="surface1">
<path style=" stroke:none;fill-rule:nonzero;fill:rgb(89.019608%,89.019608%,89.019608%);fill-opacity:1;" d="M 233.335938 666.664062 C 205.554688 666.664062 181.945312 656.945312 162.5 637.5 C 143.054688 618.054688 133.335938 594.445312 133.335938 566.664062 L 50 566.664062 L 65 500 L 159.167969 500 C 168.609375 489.445312 179.722656 481.25 192.5 475.417969 C 205.277344 469.582031 218.890625 466.664062 233.335938 466.664062 C 247.777344 466.664062 261.390625 469.582031 274.167969 475.417969 C 286.945312 481.25 298.054688 489.445312 307.5 500 L 446.667969 500 L 516.664062 200 L 151.667969 200 L 155 185.832031 C 158.335938 170.277344 165.972656 157.636719 177.917969 147.914062 C 189.863281 138.195312 203.886719 133.335938 220 133.335938 L 600 133.335938 L 569.167969 266.664062 L 666.664062 266.664062 L 766.664062 400 L 733.335938 566.664062 L 666.664062 566.664062 C 666.664062 594.445312 656.945312 618.054688 637.5 637.5 C 618.054688 656.945312 594.445312 666.664062 566.664062 666.664062 C 538.886719 666.664062 515.277344 656.945312 495.835938 637.5 C 476.386719 618.054688 466.664062 594.445312 466.664062 566.664062 L 333.335938 566.664062 C 333.335938 594.445312 323.613281 618.054688 304.164062 637.5 C 284.722656 656.945312 261.113281 666.664062 233.335938 666.664062 Z M 530.832031 433.335938 L 691.664062 433.335938 L 695 415.832031 L 633.335938 333.335938 L 554.164062 333.335938 Z M 515 205.832031 L 516.664062 200 L 446.667969 500 L 448.332031 494.167969 L 476.667969 372.5 Z M 16.664062 444.167969 L 33.335938 377.5 L 216.664062 377.5 L 200 444.167969 Z M 83.335938 322.5 L 100 255.832031 L 316.664062 255.832031 L 300 322.5 Z M 233.335938 600 C 242.777344 600 250.695312 596.804688 257.082031 590.417969 C 263.472656 584.027344 266.664062 576.109375 266.664062 566.664062 C 266.664062 557.222656 263.472656 549.304688 257.082031 542.917969 C 250.695312 536.527344 242.777344 533.335938 233.335938 533.335938 C 223.890625 533.335938 215.972656 536.527344 209.582031 542.917969 C 203.195312 549.304688 200 557.222656 200 566.664062 C 200 576.109375 203.195312 584.027344 209.582031 590.417969 C 215.972656 596.804688 223.890625 600 233.335938 600 Z M 566.664062 600 C 576.109375 600 584.027344 596.804688 590.417969 590.417969 C 596.804688 584.027344 600 576.109375 600 566.664062 C 600 557.222656 596.804688 549.304688 590.417969 542.917969 C 584.027344 536.527344 576.109375 533.335938 566.664062 533.335938 C 557.222656 533.335938 549.304688 536.527344 542.917969 542.917969 C 536.527344 549.304688 533.335938 557.222656 533.335938 566.664062 C 533.335938 576.109375 536.527344 584.027344 542.917969 590.417969 C 549.304688 596.804688 557.222656 600 566.664062 600 Z M 566.664062 600 "/>
</g>
</svg>
